<?xml version="1.0" encoding="utf-8"?>
<svg viewBox="0 0 500 300" xmlns="http://www.w3.org/2000/svg">
  <path id="Sea Shell" fill="none" d="M 58.741 57.017 C 74.588 60.966 93.235 22.747 116.557 52.017 C 139.178 56.867 145.752 20.472 187.296 46.418 C 219.116 21.872 245.012 27.321 245.012 27.321 C 245.012 27.321 251.111 43.969 273.082 52.942 C 284.031 50.118 352.445 12.949 387.265 16.873 C 497.423 62.316 414.535 177.298 498.672 236.039 C 511.795 267.284 424.934 216.042 357.444 242.288 C 302.453 259.785 327.124 288.531 213.742 282.632 C 209.042 255.411 179.972 245.412 178.097 201.669 C 157.875 203.494 153.251 203.244 127.305 196.845 C 118.457 183.422 108.108 157.926 108.733 146.053 C 94.36 138.254 62.815 167.924 60.616 113.258 C 20.622 107.934 27.171 79.513 0 68.565 C 1.675 40.944 36.569 47.893 58.741 57.017 Z M 381.816 31.421 C 365.918 25.946 290.005 75.489 332.273 123.206 C 350.445 121.857 359.094 94.136 431.808 107.309 C 434.982 56.417 396.363 42.769 381.816 31.421 Z M 193.22 56.867 C 193.22 56.867 240.438 122.856 185.896 190.096 M 122.481 62.316 C 122.481 62.316 136.229 94.811 113.407 134.505 M 67.165 106.359 C 67.165 106.359 77.813 83.563 65.615 66.065 M 194.645 210.093 C 194.645 210.093 228.714 244.487 235.288 261.51 C 258.71 259.16 279.556 259.11 314.551 233.664 C 389.089 196.395 448.405 218.666 459.528 222.291 M 216.391 180.472 C 238.438 198.42 240.013 194.57 255.885 218.841 C 295.004 223.191 388.19 160.925 448.18 195.92 M 226.84 143.203 C 226.84 143.203 247.137 153.627 276.832 149.577 C 329.549 202.294 389.089 128.68 437.707 163.675 M 213.667 66.865 C 213.342 66.865 227.79 52.617 253.086 54.192 M 225.59 93.261 C 225.59 93.261 249.311 77.688 278.082 79.813 C 281.381 98.66 295.154 133.43 332.273 144.128 C 388.19 116.857 402.712 129.58 433.632 132.305 M 120.031 142.753 C 120.031 142.753 128.23 167.299 139.128 173.673 C 166.399 166.85 169.124 176.173 175.473 177.973 M 132.754 122.756 C 132.754 122.756 144.128 140.704 145.477 139.129 C 147.502 142.278 182.647 139.854 190.595 139.179 M 136.804 74.189 C 136.804 74.189 145.202 73.614 152.301 63.441 C 159.175 60.166 180.947 70.615 191.17 77.313 M 138.228 99.36 C 138.528 99.035 156.176 81.638 192.07 106.184 M 74.363 112.308 C 74.988 112.933 76.238 133.855 104.359 131.68 M 78.113 89.187 C 78.113 89.187 102.484 86.362 118.107 95.436 M 75.913 65.44 C 75.613 65.44 96.86 47.618 114.057 64.515 M 11.573 61.691 C 36.569 61.366 32.77 83.438 59.591 84.587" style="stroke: rgb(5, 230, 117); stroke-width: 5px;"/>
</svg>